<svg xmlns="http://www.w3.org/2000/svg" fill="none" viewBox="0 0 167 88"><g clip-path="url(#a)"><path fill="#fff" d="M8.98 10.775c-.352.52-.84.901-1.464 1.141-.624.241-1.338.36-2.143.36a4.087 4.087 0 0 1-1.479-.254 2.425 2.425 0 0 1-1.057-.751c-.261-.33-.392-.736-.392-1.216 0-.56.13-1.04.392-1.441.262-.4.66-.711 1.193-.93.533-.22 1.202-.331 2.007-.331.885 0 1.68.116 2.385.345.364.12.726.276 1.086.462v.544c0 .86-.176 1.55-.527 2.071ZM9.374.493C8.577.163 7.647-.003 6.58-.003c-1.247 0-2.314.19-3.2.57-.885.381-1.59.762-2.112 1.142L2.445 3.54c.22-.161.529-.356.92-.586.393-.23.86-.43 1.405-.601a6.069 6.069 0 0 1 1.81-.255c.765 0 1.444.176 2.038.525.593.351.89.876.89 1.576v2.317a6.103 6.103 0 0 0-1.312-.65c-.634-.23-1.395-.346-2.28-.346-1.207 0-2.254.186-3.14.556-.884.37-1.569.896-2.052 1.576C.242 8.333 0 9.164 0 10.145c0 .94.216 1.726.649 2.356a4.036 4.036 0 0 0 1.736 1.427c.724.32 1.52.48 2.385.48.965 0 1.84-.165 2.626-.495.785-.33 1.413-.81 1.886-1.441.086-.116.156-.239.226-.362v1.998h2.415V4.2c0-.9-.226-1.66-.68-2.281-.452-.62-1.076-1.096-1.87-1.426Zm7.438 13.615h2.415V2.548h4.98V.299h-7.395v13.81Zm11.353-8.346c.066-.636.249-1.203.556-1.697a3.972 3.972 0 0 1 1.585-1.456 4.772 4.772 0 0 1 2.203-.51c.806 0 1.484.156 2.038.465.553.31.986.74 1.298 1.291.312.55.508 1.186.589 1.907h-8.27ZM35.95.868c-.986-.58-2.133-.87-3.44-.87-1.188 0-2.26.24-3.215.72a6.232 6.232 0 0 0-2.34 2.011c-.603.861-1.005 1.862-1.207 3.002a8.837 8.837 0 0 0-.121 1.472c0 1.38.288 2.617.86 3.707.575 1.091 1.36 1.947 2.355 2.567.996.621 2.118.93 3.366.93 1.206 0 2.213-.145 3.018-.434.805-.29 1.489-.7 2.053-1.231a10.331 10.331 0 0 0 1.54-1.847l-1.963-1.23c-.302.5-.664.936-1.087 1.306-.422.37-.9.66-1.433.87-.534.21-1.143.316-1.827.316-.905 0-1.69-.19-2.353-.571-.665-.38-1.178-.94-1.54-1.681-.288-.59-.43-1.309-.488-2.102H39.03c.02-.12.03-.24.03-.36v-.36c0-1.461-.271-2.717-.814-3.769A5.944 5.944 0 0 0 35.95.868Zm17.206 4.834h-7.698V.298h-2.414v13.81h2.414V7.953h7.698v6.155h2.415V.298h-2.415v5.404Zm5.492-3.153h2.869v11.559h2.414V2.548h2.868V.299h-8.15v2.25ZM75.25-.003c-1.349 0-2.566.31-3.652.93a6.93 6.93 0 0 0-2.581 2.553c-.635 1.08-.951 2.322-.951 3.723 0 1.38.316 2.617.95 3.707a6.885 6.885 0 0 0 2.582 2.567c1.086.621 2.303.93 3.652.93.946 0 1.866-.155 2.762-.464.896-.31 1.585-.746 2.068-1.306V9.635c-.201.44-.543.856-1.026 1.245a5.688 5.688 0 0 1-1.706.93 6.267 6.267 0 0 1-2.098.347c-.905 0-1.715-.216-2.429-.646a4.648 4.648 0 0 1-1.69-1.756c-.414-.74-.62-1.592-.62-2.552 0-.961.206-1.816.62-2.567a4.504 4.504 0 0 1 1.69-1.756c.714-.421 1.524-.631 2.43-.631a6.31 6.31 0 0 1 2.097.345c.654.23 1.222.536 1.706.916.483.38.825.8 1.026 1.261V1.768c-.483-.559-1.172-.995-2.068-1.305a8.378 8.378 0 0 0-2.762-.466Zm7.153 2.552h2.867v11.559h2.416V2.548h2.867V.299h-8.15v2.25Zm18.669 8.887c-.433.38-1.102.57-2.007.57h-3.019V8.164h3.019c.463 0 .86.045 1.192.136.332.09.604.224.815.405.212.18.372.38.483.6.11.22.166.47.166.751 0 .54-.216 1-.649 1.38Zm-2.308-9.037c.724 0 1.297.165 1.72.495.422.33.633.766.633 1.306 0 .26-.055.506-.166.735-.11.231-.267.436-.467.616-.202.18-.449.316-.74.406-.292.09-.618.136-.98.136h-2.718V2.399h2.718Zm2.897 4.804c-.155-.041-.333-.06-.495-.092.698-.25 1.267-.623 1.702-1.125.443-.51.664-1.155.664-1.936 0-.9-.221-1.626-.664-2.176-.443-.55-1.021-.951-1.736-1.201-.714-.25-1.504-.375-2.368-.375h-5.132v13.81h6.037c1.589 0 2.732-.365 3.426-1.096.695-.73 1.041-1.615 1.041-2.657 0-.9-.221-1.6-.664-2.102-.443-.5-1.047-.85-1.811-1.05Zm16.406 2.552a4.66 4.66 0 0 1-1.691 1.756c-.715.43-1.524.646-2.43.646-.905 0-1.716-.216-2.429-.646a4.645 4.645 0 0 1-1.691-1.756c-.413-.74-.619-1.592-.619-2.552 0-.961.206-1.816.619-2.567a4.502 4.502 0 0 1 1.691-1.756c.713-.421 1.524-.631 2.429-.631.906 0 1.715.21 2.43.63a4.516 4.516 0 0 1 1.691 1.757c.411.751.618 1.606.618 2.567 0 .96-.207 1.811-.618 2.552Zm2.112-6.275a6.965 6.965 0 0 0-2.565-2.552c-1.077-.62-2.3-.93-3.668-.93-1.348 0-2.565.31-3.653.93a6.93 6.93 0 0 0-2.58 2.552c-.634 1.08-.951 2.322-.951 3.723 0 1.38.317 2.617.951 3.707a6.886 6.886 0 0 0 2.58 2.567c1.088.621 2.305.93 3.653.93 1.368 0 2.591-.309 3.668-.93a6.919 6.919 0 0 0 2.565-2.567c.634-1.09.952-2.326.952-3.707 0-1.4-.318-2.642-.952-3.723ZM11.772 33.942H8.753l-5.131 4.849v-4.849H1.207v13.81h2.415v-7l5.735 7h3.019l-6.64-8.106 6.036-5.704Zm14.323 9.606c-.432.74-1.006 1.301-1.72 1.68a4.958 4.958 0 0 1-2.37.572c-.705 0-1.4-.19-2.083-.571-.684-.38-1.247-.94-1.69-1.681-.443-.74-.664-1.64-.664-2.702 0-1.061.221-1.961.664-2.702.443-.74 1.006-1.3 1.69-1.68.684-.381 1.378-.572 2.084-.572.864 0 1.655.19 2.369.571.714.38 1.288.941 1.72 1.681.433.74.649 1.64.649 2.702 0 1.061-.216 1.961-.649 2.702Zm-.332-9.037c-1.036-.58-2.189-.87-3.456-.87-1.146 0-2.158.29-3.034.87-.688.457-1.253 1.07-1.705 1.83v-2.4h-2.415v20.415h2.415v-9.015c.452.767 1.017 1.383 1.705 1.84.876.58 1.887.87 3.034.87 1.267 0 2.42-.29 3.456-.87 1.036-.58 1.866-1.41 2.49-2.493.624-1.08.936-2.36.936-3.842 0-1.501-.312-2.788-.936-3.858-.624-1.07-1.454-1.896-2.49-2.477Zm8.741 4.895c.067-.635.25-1.202.557-1.697a3.97 3.97 0 0 1 1.584-1.456 4.772 4.772 0 0 1 2.204-.51c.805 0 1.484.155 2.038.465.552.31.985.741 1.297 1.291.313.55.509 1.186.59 1.907h-8.27Zm7.786-4.894c-.986-.58-2.133-.87-3.441-.87-1.188 0-2.26.24-3.214.72a6.225 6.225 0 0 0-2.34 2.012c-.604.86-1.007 1.861-1.208 3.002a8.739 8.739 0 0 0-.12 1.471c0 1.38.287 2.617.86 3.708.573 1.09 1.358 1.946 2.355 2.567.996.62 2.117.93 3.365.93 1.207 0 2.214-.145 3.019-.436.804-.29 1.488-.7 2.052-1.23a10.357 10.357 0 0 0 1.54-1.847l-1.963-1.23c-.301.5-.663.936-1.086 1.305a4.85 4.85 0 0 1-1.435.871c-.532.211-1.141.316-1.825.316-.905 0-1.69-.19-2.354-.571-.664-.38-1.178-.94-1.54-1.681-.288-.589-.43-1.309-.488-2.102h10.902c.02-.12.03-.24.03-.36v-.36c0-1.461-.272-2.717-.815-3.768a5.947 5.947 0 0 0-2.294-2.447Zm14.713 9.908c-.352.52-.84.9-1.464 1.14-.623.241-1.338.36-2.143.36a4.086 4.086 0 0 1-1.478-.254 2.419 2.419 0 0 1-1.057-.75c-.262-.332-.393-.737-.393-1.217 0-.56.131-1.04.393-1.44.261-.4.658-.712 1.192-.932.533-.22 1.202-.33 2.007-.33.885 0 1.68.116 2.385.345.365.12.727.276 1.086.462v.544c0 .86-.176 1.551-.528 2.072Zm.393-10.283c-.796-.33-1.726-.495-2.792-.495-1.248 0-2.315.19-3.2.57-.886.38-1.59.76-2.113 1.14l1.177 1.832c.221-.16.529-.355.921-.586a6.8 6.8 0 0 1 1.404-.6 6.066 6.066 0 0 1 1.81-.254c.766 0 1.444.175 2.038.524.593.351.89.876.89 1.576v2.316a6.127 6.127 0 0 0-1.312-.65c-.635-.229-1.394-.345-2.28-.345-1.207 0-2.254.186-3.139.556-.884.37-1.57.896-2.052 1.576-.484.68-.725 1.511-.725 2.492 0 .94.217 1.726.65 2.357a4.034 4.034 0 0 0 1.735 1.426c.725.32 1.519.48 2.385.48.966 0 1.84-.165 2.626-.495.785-.33 1.414-.81 1.886-1.442.086-.115.156-.238.226-.361v1.998h2.415v-9.908c0-.9-.225-1.66-.678-2.28-.453-.62-1.078-1.097-1.872-1.427Zm5.176 2.057h2.867v11.559h2.415v-11.56h2.868v-2.25h-8.15v2.25Zm13.795-2.252h-2.415v14.86l9.207-10v8.95h2.413V32.891l-9.205 10v-8.95ZM97.13 45.08c-.434.381-1.102.571-2.008.571h-3.018v-3.843h3.018c.463 0 .86.045 1.192.135.333.09.604.224.816.406.211.18.372.38.483.6.11.22.166.47.166.75 0 .541-.217 1.002-.65 1.382Zm-2.31-9.036c.726 0 1.299.165 1.722.495.421.33.633.766.633 1.306 0 .26-.055.506-.166.736a1.97 1.97 0 0 1-.467.615c-.202.18-.45.315-.74.405-.293.09-.62.136-.982.136h-2.716v-3.694h2.716Zm2.898 4.803c-.154-.04-.332-.058-.495-.091.698-.25 1.268-.623 1.703-1.125.442-.51.663-1.155.663-1.936 0-.901-.221-1.626-.663-2.176-.443-.551-1.022-.951-1.736-1.202-.714-.25-1.504-.375-2.37-.375h-5.13v13.81h6.037c1.59 0 2.732-.365 3.426-1.095s1.041-1.616 1.041-2.657c0-.9-.221-1.601-.664-2.102-.442-.5-1.046-.85-1.81-1.05Zm16.421-1.501h-7.699v-5.404h-2.414v13.81h2.414v-6.154h7.699v6.155h2.414v-13.81h-2.414v5.403Zm20.13 8.407h2.415v-13.81h-2.415v13.81Zm-4.435-3.108c-.202.33-.498.581-.891.75-.393.171-.881.256-1.464.256h-3.321v-4.384h3.321c.885 0 1.55.19 1.993.571.441.38.664.92.664 1.621 0 .46-.102.856-.302 1.186Zm1.252-4.444c-.976-.69-2.179-1.035-3.607-1.035h-3.321v-5.224h-2.414v13.81h5.735c.966 0 1.831-.15 2.595-.45.765-.3 1.369-.77 1.813-1.41.44-.641.663-1.452.663-2.433 0-1.48-.488-2.567-1.464-3.258Zm16.163.436 4.739-6.695h-2.717l-3.32 4.804-3.32-4.804h-2.716l4.739 6.695-5.041 7.116h2.717l3.621-5.224 3.624 5.224h2.715l-5.041-7.116ZM3.925 67.584H1.511v14.861l9.206-10v8.95h2.414V66.532l-9.206 10v-8.949Zm24.66 5.405h-7.698v-5.405h-2.414v13.81h2.414V75.24h7.698v6.154h2.414v-13.81h-2.414v5.404Zm14.382-1.261 3.446 7.415H39.52l3.447-7.415Zm0-5.195-6.135 12.61h-2.47v4.954h2.567v-2.703h12.225v2.703h2.415v-4.954h-2.47l-6.132-12.61Zm16.45 10.568-3.88-9.516h-2.868l5.312 11.859L54.178 88h2.716l9.056-20.415h-2.717l-3.816 9.516Zm14.831-9.817c-1.348 0-2.565.311-3.652.93a6.925 6.925 0 0 0-2.58 2.553c-.635 1.081-.952 2.322-.952 3.723 0 1.38.318 2.617.952 3.708a6.886 6.886 0 0 0 2.58 2.567c1.087.62 2.304.93 3.652.93.946 0 1.867-.155 2.763-.465.895-.31 1.585-.745 2.068-1.307v-3c-.202.44-.543.854-1.027 1.245-.483.39-1.051.7-1.705.93a6.286 6.286 0 0 1-2.099.346c-.905 0-1.714-.216-2.428-.645a4.648 4.648 0 0 1-1.691-1.757c-.413-.74-.62-1.591-.62-2.552 0-.96.207-1.816.62-2.567a4.5 4.5 0 0 1 1.69-1.756c.715-.42 1.524-.63 2.43-.63.744 0 1.444.115 2.098.344.654.23 1.222.536 1.705.916.484.38.825.8 1.027 1.26v-3.002c-.483-.559-1.173-.995-2.068-1.305a8.383 8.383 0 0 0-2.763-.466Zm7.155 2.551h2.868v11.56h2.415v-11.56h2.868v-2.251h-8.15v2.251Zm22.02 7.356c-.433.742-1.007 1.302-1.72 1.682a4.96 4.96 0 0 1-2.37.57c-.705 0-1.399-.19-2.083-.57-.684-.38-1.248-.94-1.69-1.682-.443-.739-.664-1.64-.664-2.701 0-1.062.221-1.962.664-2.702.442-.74 1.006-1.301 1.69-1.681.684-.38 1.378-.57 2.083-.57.865 0 1.656.19 2.37.57.713.38 1.287.94 1.72 1.68.432.741.649 1.641.649 2.703 0 1.061-.217 1.962-.649 2.701Zm-.332-9.036c-1.036-.58-2.189-.87-3.456-.87-1.146 0-2.158.29-3.034.87-.688.457-1.254 1.07-1.705 1.83v-2.4H92.48V88h2.415v-9.015c.451.767 1.017 1.384 1.705 1.84.876.58 1.888.87 3.034.87 1.267 0 2.42-.29 3.456-.87 1.036-.58 1.866-1.411 2.49-2.493.624-1.08.936-2.361.936-3.842 0-1.501-.312-2.788-.936-3.858-.624-1.07-1.454-1.896-2.49-2.477Zm9.976-.571h-2.415v14.861l9.207-10v8.95h2.414V66.532l-9.206 10v-8.949Zm17.115 8.95v-8.949h-2.414v14.861l9.205-10v8.95h2.414V66.533l-9.205 10Zm.831-12.417c.714.41 1.595.615 2.642.615 1.065 0 1.95-.205 2.655-.615.704-.41 1.232-.94 1.585-1.59.351-.651.528-1.317.528-1.998h-2.143c0 .261-.071.566-.212.915-.139.351-.402.661-.784.932-.383.27-.926.405-1.629.405-.706 0-1.249-.135-1.631-.405-.382-.27-.644-.58-.785-.932-.141-.349-.212-.654-.212-.915h-2.142c0 .681.175 1.347.529 1.997.351.65.885 1.181 1.599 1.591Z"/><path fill="#EF3065" d="M151.008 74.49c0 4.393 3.581 7.955 7.998 7.955s8-3.562 8-7.956-3.583-7.956-8-7.956-7.998 3.562-7.998 7.956Z"/></g><defs><clipPath id="a"><path fill="#fff" d="M0 0h167v88H0z"/></clipPath></defs></svg>