<svg xmlns="http://www.w3.org/2000/svg" fill="none" viewBox="0 0 193 30"><g clip-path="url(#a)"><path fill="#fff" d="M31.47 8.128c1.427 0 2.708.351 3.845 1.054 1.136.682 2.015 1.633 2.635 2.852.64 1.22.96 2.614.96 4.185 0 1.57-.32 2.976-.96 4.216a7.328 7.328 0 0 1-2.666 2.883c-1.116.703-2.387 1.054-3.813 1.054-1.633 0-2.956-.475-3.968-1.426v6.634H22.17V8.5h4.867v1.612c.971-1.323 2.449-1.984 4.433-1.984Zm-1.053 11.408c.826 0 1.54-.29 2.139-.868.599-.579.899-1.385.899-2.418 0-1.033-.3-1.84-.9-2.418-.578-.579-1.291-.868-2.138-.868-.827 0-1.54.279-2.14.837-.578.558-.867 1.364-.867 2.418s.289 1.87.868 2.449a2.971 2.971 0 0 0 2.139.868Zm13.955-6.572h-4.495V8.5H54.23v4.464h-4.526V24h-5.332V12.964ZM88.71 24.372c-1.55 0-2.977-.362-4.279-1.085a8.15 8.15 0 0 1-3.038-2.945c-.744-1.24-1.116-2.604-1.116-4.092 0-1.488.372-2.852 1.116-4.092a8.15 8.15 0 0 1 3.038-2.945c1.302-.723 2.728-1.085 4.278-1.085 1.55 0 2.966.362 4.247 1.085 1.302.723 2.325 1.705 3.07 2.945a7.645 7.645 0 0 1 1.146 4.092 7.645 7.645 0 0 1-1.147 4.092c-.744 1.24-1.767 2.222-3.069 2.945-1.281.723-2.697 1.085-4.247 1.085Zm.03-4.898c.868 0 1.581-.3 2.14-.899.557-.62.836-1.395.836-2.325 0-.93-.289-1.695-.868-2.294-.558-.62-1.26-.93-2.108-.93-.888 0-1.612.3-2.17.899-.558.6-.837 1.374-.837 2.325 0 .971.28 1.757.837 2.356.558.579 1.282.868 2.17.868Zm18.83 4.898c-1.55 0-2.976-.351-4.278-1.054a8.397 8.397 0 0 1-3.069-2.945c-.744-1.24-1.116-2.614-1.116-4.123 0-1.509.372-2.883 1.116-4.123a8.154 8.154 0 0 1 3.069-2.914c1.302-.723 2.728-1.085 4.278-1.085 1.592 0 2.987.372 4.185 1.116a7.388 7.388 0 0 1 2.759 3.038l-3.689 2.821c-.413-.661-.878-1.168-1.395-1.519-.496-.372-1.095-.558-1.798-.558-.93 0-1.674.3-2.232.899-.558.6-.837 1.374-.837 2.325 0 .95.279 1.726.837 2.325.558.6 1.302.899 2.232.899.703 0 1.302-.176 1.798-.527.517-.372.982-.878 1.395-1.519l3.689 2.79a7.388 7.388 0 0 1-2.759 3.038c-1.198.744-2.593 1.116-4.185 1.116Zm31.372-8.184c0 1.674-.393 3.1-1.178 4.278-.765 1.178-1.809 2.087-3.131 2.728-1.323.62-2.832.971-4.526 1.054v5.332h-5.332v-5.363c-2.604-.186-4.733-.961-6.386-2.325-1.633-1.385-2.449-3.286-2.449-5.704 0-1.674.382-3.1 1.147-4.278.785-1.178 1.839-2.077 3.162-2.697 1.322-.64 2.831-1.002 4.526-1.085V.75h5.332v7.409c2.604.186 4.722.971 6.355 2.356 1.653 1.364 2.48 3.255 2.48 5.673Zm-17.732.062c0 1.054.33 1.88.992 2.48.661.6 1.57.95 2.728 1.054v-7.192c-2.48.165-3.72 1.385-3.72 3.658Zm12.462-.124c0-1.075-.341-1.922-1.023-2.542-.662-.62-1.561-.95-2.697-.992v7.192c2.48-.165 3.72-1.385 3.72-3.658ZM156.2 18.11h-9.92c.578 1.178 1.736 1.767 3.472 1.767 1.384 0 2.738-.403 4.061-1.209l1.922 3.627c-1.84 1.385-3.896 2.077-6.169 2.077-1.674 0-3.173-.351-4.495-1.054-1.323-.723-2.356-1.695-3.1-2.914-.744-1.24-1.116-2.625-1.116-4.154 0-1.509.361-2.883 1.085-4.123a7.978 7.978 0 0 1 3.007-2.914c1.26-.723 2.655-1.085 4.185-1.085 1.488 0 2.79.33 3.906.992a6.734 6.734 0 0 1 2.573 2.697c.62 1.116.93 2.335.93 3.658 0 .93-.114 1.808-.341 2.635Zm-7.285-5.797a2.75 2.75 0 0 0-1.767.62c-.496.393-.848.961-1.054 1.705h5.394c-.021-.703-.279-1.26-.775-1.674-.496-.434-1.096-.651-1.798-.651Zm19.634-4.185c1.426 0 2.707.351 3.844 1.054 1.136.682 2.015 1.633 2.635 2.852.64 1.22.961 2.614.961 4.185 0 1.57-.321 2.976-.961 4.216a7.328 7.328 0 0 1-2.666 2.883c-1.116.703-2.387 1.054-3.813 1.054-1.633 0-2.956-.475-3.968-1.426v6.634h-5.332V8.5h4.867v1.612c.971-1.323 2.449-1.984 4.433-1.984Zm-1.054 11.408c.826 0 1.539-.29 2.139-.868.599-.579.899-1.385.899-2.418 0-1.033-.3-1.84-.899-2.418-.579-.579-1.292-.868-2.139-.868a3.03 3.03 0 0 0-2.139.837c-.579.558-.868 1.364-.868 2.418s.289 1.87.868 2.449a2.972 2.972 0 0 0 2.139.868Zm18.009-11.408c2.17 0 3.886.589 5.146 1.767 1.261 1.178 1.891 2.883 1.891 5.115V24h-4.867v-1.271c-1.157 1.095-2.645 1.643-4.464 1.643-1.116 0-2.077-.217-2.883-.651-.806-.434-1.415-1.013-1.829-1.736a4.901 4.901 0 0 1-.62-2.418c0-1.447.538-2.573 1.612-3.379 1.096-.827 2.584-1.24 4.464-1.24h3.255V14.7c0-.6-.196-1.075-.589-1.426-.372-.372-.961-.558-1.767-.558-.702 0-1.343.155-1.922.465-.558.29-1.209.765-1.953 1.426l-2.48-3.379c1.034-1.054 2.108-1.829 3.224-2.325 1.116-.517 2.377-.775 3.782-.775Zm-.651 12.462c.682 0 1.24-.196 1.674-.589.455-.413.682-.971.682-1.674v-.124h-2.511c-.454 0-.806.103-1.054.31-.248.207-.372.496-.372.868s.135.672.403.899c.29.207.682.31 1.178.31ZM9.81 2 0 24.075h20.776L10.966 2H9.81Z"/><path fill="#E74362" fill-rule="evenodd" d="M14.29 24.075H0l7.142-16.07 7.147 16.07Z" clip-rule="evenodd"/><path fill="#fff" d="M57 2v22.075h20.776L58.154 2H57Z"/><path fill="#E74362" fill-rule="evenodd" d="M77.776 2v22.075H57L76.622 2h1.154Z" clip-rule="evenodd"/></g><defs><clipPath id="a"><path fill="#fff" d="M0 0h193v30H0z"/></clipPath></defs></svg>