<svg width="60" height="60" viewBox="0 0 60 60" fill="none" xmlns="http://www.w3.org/2000/svg">
<circle cx="30" cy="30" r="29.5" stroke="white"/>
<path d="M17.9416 30.0542L23.7021 32.2042L25.9317 39.3748C26.0744 39.8341 26.636 40.0038 27.0087 39.6991L30.2197 37.0814C30.5563 36.8071 31.0357 36.7935 31.3875 37.0488L37.179 41.2536C37.5777 41.5434 38.1427 41.3249 38.2427 40.8431L42.4852 20.4355C42.5944 19.9091 42.0772 19.4701 41.5761 19.6639L17.9348 28.784C17.3514 29.009 17.3565 29.835 17.9416 30.0542ZM25.5724 31.0597L36.8306 24.1258C37.0329 24.0016 37.2411 24.2751 37.0673 24.4363L27.7761 33.073C27.4495 33.377 27.2388 33.7838 27.1792 34.2254L26.8627 36.5709C26.8207 36.8841 26.3808 36.9151 26.2944 36.6121L25.0772 32.335C24.9377 31.8471 25.1409 31.3261 25.5724 31.0597Z" fill="white"/>
</svg>
