<svg width="122" height="140" viewBox="0 0 122 140" fill="none" xmlns="http://www.w3.org/2000/svg">
<path d="M61 42.4999C87.2335 42.4999 108.5 63.7664 108.5 89.9999C108.5 116.233 87.2335 137.5 61 137.5C34.7665 137.5 13.5 116.233 13.5 89.9999C13.5 63.7664 34.7665 42.4999 61 42.4999Z" stroke="black"/>
<path d="M61 59C66.7915 59 71.2274 64.1508 70.3683 69.8783L66.7417 94.0553C66.3154 96.8974 63.8739 99 61 99C58.1261 99 55.6846 96.8974 55.2583 94.0553L51.6317 69.8783C50.7726 64.1508 55.2085 59 61 59Z" fill="url(#paint0_linear_184_5101)"/>
<rect x="67" y="106" width="12" height="12" rx="6" transform="rotate(90 67 106)" fill="url(#paint1_linear_184_5101)"/>
<defs>
<linearGradient id="paint0_linear_184_5101" x1="45.4706" y1="88.25" x2="88.2396" y2="81.4425" gradientUnits="userSpaceOnUse">
<stop stop-color="#B3055E"/>
<stop offset="1" stop-color="#242875"/>
</linearGradient>
<linearGradient id="paint1_linear_184_5101" x1="78" y1="119.385" x2="77.7113" y2="86.7433" gradientUnits="userSpaceOnUse">
<stop stop-color="#B3055E"/>
<stop offset="1" stop-color="#242875"/>
</linearGradient>
</defs>
</svg>
