<svg width="100" height="200" viewBox="0 0 100 200" fill="none" xmlns="http://www.w3.org/2000/svg">
<path d="M43.6406 21.9462L43.6445 21.9436C47.1634 19.5737 51.6875 19.3575 55.4243 21.3696C59.1657 23.3842 61.5 27.2664 61.5 31.5048V169.005V170.005H62.5H87.5C93.8618 170.005 99 175.143 99 181.505C99 187.867 93.8618 193.005 87.5 193.005H12.5C6.13822 193.005 1 187.867 1 181.505C1 175.143 6.13822 170.005 12.5 170.005H37.5H38.5V169.005V54.8641V52.9922L36.9441 54.0329L18.8984 66.1024C13.6129 69.6261 6.46313 68.2217 2.94315 62.9058C-0.58394 57.5792 0.823113 50.4673 6.13804 46.9479L6.14064 46.9462L43.6406 21.9462Z" stroke="#E74362" stroke-width="2"/>
</svg>
