<svg width="34" height="56" viewBox="0 0 34 56" fill="none" xmlns="http://www.w3.org/2000/svg">
<path d="M15.1718 2.4036L15.1718 2.4036L15.1757 2.40122C16.1798 1.77945 17.4863 1.71937 18.5618 2.25182C19.6347 2.783 20.25 3.77329 20.25 4.79908V47.7811V48.7811H21.25H29.75C31.6293 48.7811 33 50.157 33 51.6886C33 53.2201 31.6293 54.596 29.75 54.596H4.25C2.37073 54.596 1 53.2201 1 51.6886C1 50.157 2.37073 48.7811 4.25 48.7811H12.75H13.75V47.7811V12.1011V10.3123L12.2262 11.2493L6.09148 15.0217C6.0913 15.0218 6.09113 15.0219 6.09095 15.022C4.55781 15.9613 2.50587 15.56 1.52864 14.2031C0.583202 12.8904 0.92829 11.1278 2.41923 10.2201L2.4218 10.2185L15.1718 2.4036Z" stroke="#E74362" stroke-width="2"/>
</svg>
