<svg width="116" height="200" viewBox="0 0 116 200" fill="none" xmlns="http://www.w3.org/2000/svg">
<g clip-path="url(#clip0_262_5634)">
<path d="M19.0607 58.1467L19.0596 58.1479C14.924 62.6044 8.23992 62.6044 4.10434 58.1479C-0.0706918 53.6489 -0.0709128 46.313 4.10368 41.8138C4.1039 41.8135 4.10412 41.8133 4.10434 41.813L15.3043 29.7831C15.3044 29.7831 15.3044 29.783 15.3045 29.783C25.0208 19.3513 38.1359 13.5 51.8013 13.5C80.2162 13.5 103.4 38.3712 103.4 69.1797C103.4 83.9765 97.9425 98.1448 88.2608 108.578L88.2606 108.578L38.8881 161.82L37.3302 163.5H39.6213H104.4C110.195 163.5 115 168.567 115 175C115 181.433 110.195 186.5 104.4 186.5H11.6001C7.37381 186.5 3.48005 183.743 1.80279 179.405C0.125752 175.068 1.06998 170.121 4.10598 166.811C4.10667 166.811 4.10735 166.81 4.10803 166.809L73.3054 92.282L73.3056 92.2818C78.9935 86.1525 82.2001 77.821 82.2001 69.1797C82.2001 51.1991 68.6627 36.5 51.8013 36.5C43.7201 36.5 35.9534 39.9431 30.2604 46.1171C30.2598 46.1177 30.2592 46.1184 30.2586 46.119L19.0607 58.1467Z" stroke="#E74362" stroke-width="2"/>
</g>
<defs>
<clipPath id="clip0_262_5634">
<rect width="116" height="200" fill="white"/>
</clipPath>
</defs>
</svg>
