<svg width="38" height="56" viewBox="0 0 38 56" fill="none" xmlns="http://www.w3.org/2000/svg">
<path d="M1.21082 52.3491C0.768973 51.2677 1.01539 50.031 1.82024 49.1995C1.82092 49.1988 1.8216 49.1981 1.82229 49.1974L24.4877 26.0968L24.4879 26.0966C26.4776 24.0676 27.6001 21.309 27.6001 18.4457C27.6001 12.4869 22.8601 7.625 16.9695 7.625C14.1476 7.625 11.4319 8.76248 9.43872 10.8074C9.43814 10.808 9.43755 10.8086 9.43697 10.8092L5.77102 14.5354L5.76989 14.5366C4.67755 15.6504 2.91081 15.6504 1.81847 14.5366C0.715608 13.4119 0.715456 11.5766 1.81802 10.4518C1.81817 10.4516 1.81832 10.4515 1.81847 10.4513L5.48657 6.72296C8.54336 3.61725 12.6697 1.875 16.9695 1.875C25.9107 1.875 33.2001 9.27986 33.2001 18.4457C33.2001 22.8487 31.4841 27.0649 28.4393 30.1698L28.439 30.17L12.2653 46.6751L10.5995 48.375H12.9795H34.2001C35.7314 48.375 37.0001 49.6404 37.0001 51.25C37.0001 52.8596 35.7314 54.125 34.2001 54.125H3.80012C2.68521 54.125 1.65504 53.4363 1.21082 52.3491Z" stroke="#E74362" stroke-width="2"/>
</svg>
