<svg width="117" height="200" viewBox="0 0 117 200" fill="none" xmlns="http://www.w3.org/2000/svg">
<path d="M21.2512 151.088L21.9448 152.57C21.945 152.57 21.9451 152.571 21.9452 152.571C25.0614 159.27 31.5082 163.5 38.5369 163.5H67.275C82.4404 163.5 94.6 150.411 94.6 134.375C94.6 118.339 82.4404 105.25 67.275 105.25H29.25C24.8782 105.25 20.9168 102.382 19.2937 97.9382C17.6695 93.4916 18.7944 88.4393 22.0523 85.2456C22.0524 85.2455 22.0525 85.2454 22.0525 85.2454L70.0589 38.2143L71.8088 36.5H69.3591H11.7C5.84199 36.5 1 31.4251 1 25C1 18.5749 5.84199 13.5 11.7 13.5H99.45C103.822 13.5 107.783 16.3682 109.406 20.8118C111.031 25.2585 109.906 30.3109 106.647 33.5046L58.6411 80.5357L56.8912 82.25H59.3409H67.275C94.1199 82.25 116 105.528 116 134.375C116 163.222 94.1199 186.5 67.275 186.5H38.5369C23.4491 186.5 9.60135 177.374 2.84396 162.897L2.84353 162.896L2.14884 161.412C-0.528987 155.69 1.66504 148.779 6.94274 145.96C12.1788 143.163 18.5883 145.398 21.2512 151.088Z" stroke="#E74362" stroke-width="2"/>
</svg>
