<svg width="42" height="62" viewBox="0 0 42 62" fill="none" xmlns="http://www.w3.org/2000/svg">
<path d="M7.05019 49.378L7.29855 49.9018C7.2988 49.9023 7.29906 49.9028 7.29931 49.9034C8.52053 52.4931 11.0548 54.1429 13.8337 54.1429H24.15C29.9753 54.1429 34.6 49.1883 34.6 43.1786C34.6 37.1688 29.9753 32.2143 24.15 32.2143H10.5C9.21387 32.2143 8.0213 31.3807 7.52658 30.044C7.03113 28.7053 7.37858 27.1881 8.36032 26.2383L25.5932 9.57605L27.371 7.85714H24.8981H4.2C2.47843 7.85714 1 6.37643 1 4.42857C1 2.48071 2.47843 1 4.2 1H35.7C36.9861 1 38.1787 1.8336 38.6734 3.17031C39.1689 4.50899 38.8214 6.02615 37.8397 6.97594L20.6068 23.6382L18.829 25.3571H21.3019H24.15C33.4053 25.3571 41 33.287 41 43.1786C41 53.0702 33.4053 61 24.15 61H13.8337C8.67623 61 3.92402 57.9207 1.59962 53.0059L1.59919 53.005L1.34981 52.4791C0.530362 50.751 1.21439 48.6855 2.78949 47.8551C4.33196 47.0419 6.24328 47.6764 7.05019 49.378L7.93157 48.9601L7.05019 49.378Z" stroke="#E74362" stroke-width="2"/>
</svg>
